<?xml version="1.0" encoding="UTF-8" standalone="no"?>
<!-- Created with Inkscape (http://www.inkscape.org/) -->

<svg
   width="45.561352mm"
   height="8.964654mm"
   viewBox="0 0 45.561352 8.964654"
   version="1.1"
   id="svg5"
   xmlns="http://www.w3.org/2000/svg"
   xmlns:svg="http://www.w3.org/2000/svg">
  <defs
     id="defs2">
    <rect
       x="76.270317"
       y="263.2984"
       width="351.50668"
       height="92.850822"
       id="rect236" />
  </defs>
  <g
     id="layer1">
    <path
       id="path6"
       style="font-size:40px;line-height:1.25;font-family:KsoBlackBrush04;-inkscape-font-specification:KsoBlackBrush04;white-space:pre;stroke-width:0.264583"
       d="m 44.968685,6.8008441 c -0.03175,0.021167 -0.07408,0.042333 -0.116416,0.052917 0.05292,0.010583 0.09525,0 0.116416,-0.052917 z m -5.418666,0.2434167 c -0.03175,0.042333 -0.02117,0.0635 0.03175,0.0635 0,-0.021167 0.01058,-0.042333 0.02117,-0.052917 -0.02117,0 -0.04233,0 -0.05292,-0.010583 z m 0.6985,0.254 c -0.05292,0 -0.07408,0.021167 -0.07408,0.074083 0.04233,0.010583 0.07408,-0.021167 0.07408,-0.074083 z m 3.545416,-2.8469167 c 0.15875,-0.1058333 0.306917,-0.2328333 0.423334,-0.3915833 0.02117,-0.021167 0.05292,-0.03175 0.08467,-0.03175 0.01058,-0.010583 0.02117,-0.021167 0.02117,-0.042333 0.08467,-0.0635 0.15875,-0.127 0.22225,-0.22225 0.402167,-0.4868333 0.582083,-1.0583333 0.560917,-1.6933333 -0.03175,-0.074083 -0.0635,-0.1375834 -0.07408,-0.2010834 0.02117,0.010583 0.03175,0 0.01058,-0.03175 C 45.021602,1.7208442 44.989852,1.6255942 44.958102,1.5091775 44.820519,1.3292608 44.672352,1.1705108 44.524185,1.0117608 44.164352,0.75776085 43.751602,0.56726085 43.328269,0.42967752 c -0.15875,-0.0529167 -0.3175,-0.0423333 -0.47625,0.0423333 -0.02117,0.0105833 -0.04233,0.0211667 -0.05292,0.0211667 0,0.0105833 0.01058,0.0105833 0.02117,0.0105833 0.02117,0.0105833 0.04233,0.0105833 0.07408,0 -0.07408,0.0846667 -0.127,0.0846667 -0.148167,-0.0105833 -0.116416,0.0529167 -0.243416,0.10583333 -0.34925,0.15875 -0.116416,0.0105833 -0.211666,0.0635 -0.306916,0.14816666 0,-0.0105833 0,-0.0105833 0,-0.03175 -0.05292,0.0211667 -0.09525,0.0635 -0.127,0.11641667 -0.0635,0.0423333 -0.137584,0.0635 -0.22225,0.0740833 -0.529167,0.29633335 -1.016,0.64558335 -1.481667,1.04775005 -0.02117,-0.010583 -0.05292,-0.010583 -0.07408,0 0.08467,0.254 0.22225,0.4974166 0.391583,0.7090833 0.08467,0.1799167 0.201083,0.3386667 0.328083,0.4974167 0.1905,0.2645833 0.4445,0.4021666 0.751417,0.3915833 0.137583,-0.2328334 0.3175,-0.4550833 0.550333,-0.635 0.41275,-0.4445 0.910167,-0.79375 1.481667,-1.0054167 -0.22225,0.47625 -0.518583,0.8995834 -0.889,1.2594167 h -0.05292 c -0.03175,0.03175 -0.04233,0.074083 -0.04233,0.1058333 0.01058,-0.021167 0.02117,-0.021167 0.04233,-0.010583 -0.169333,0.1799166 -0.328083,0.3704166 -0.465666,0.5609166 -0.03175,0.010583 -0.05292,0.010583 -0.07408,0.010583 -0.03175,0.052917 -0.05292,0.1164166 -0.0635,0.1693333 -0.211666,0.2434167 -0.433916,0.4656667 -0.66675,0.6985 -0.116416,0.1058333 -0.22225,0.2328333 -0.3175,0.3704167 -0.02117,0.021167 -0.04233,0.021167 -0.05292,0 -0.01058,0.03175 -0.01058,0.0635 -0.01058,0.084667 h -0.05292 c -0.04233,0.052917 -0.07408,0.1058334 -0.08467,0.1799167 -0.328083,0.3069167 -0.635,0.6244166 -0.931333,0.9313333 -0.01058,-0.010583 -0.03175,0.010583 -0.05292,0.052917 -0.01058,-0.010583 -0.01058,-0.03175 -0.01058,-0.042333 -0.03175,0.0635 -0.0635,0.1375834 -0.07408,0.2116667 -0.01058,0.084667 -0.0635,0.127 -0.137583,0.1164167 -0.01058,0.052917 -0.01058,0.09525 0.01058,0.127 -0.01058,0.021167 -0.02117,0.03175 -0.03175,0.042333 -0.03175,-0.042333 -0.05292,-0.03175 -0.07408,0.021167 0.01058,0.03175 0.03175,0.021167 0.05292,-0.021167 0.03175,0.0635 0.01058,0.1164167 -0.04233,0.1375833 0.04233,0.010583 0.05292,0.03175 0.04233,0.084667 -0.03175,0.042333 -0.07408,0.074083 -0.105834,0.1058333 0.04233,0.09525 0.105834,0.1693334 0.1905,0.2010834 -0.02117,-0.03175 -0.01058,-0.052917 0.02117,-0.074083 0.03175,0.03175 0.03175,0.074083 0,0.1058334 0.127,-0.0635 0.211667,-0.03175 0.254,0.074083 0.03175,-0.052917 0.03175,-0.074083 -0.02117,-0.09525 0.03175,-0.010583 0.07408,-0.010583 0.105834,0.021167 0.01058,-0.042333 0.01058,-0.084667 -0.02117,-0.127 0.07408,-0.03175 0.15875,-0.03175 0.232833,0 0.01058,-0.03175 0.03175,-0.0635 0.0635,-0.084667 0.02117,0.052917 0.01058,0.084667 -0.03175,0.1164167 0.04233,-0.03175 0.08467,-0.03175 0.116417,-0.010583 -0.05292,0.010583 -0.07408,0.052917 -0.08467,0.1058334 0.02117,-0.03175 0.05292,-0.052917 0.105834,-0.074083 0.127,0.1375834 0.296333,0.2434167 0.497416,0.3069167 0.137584,0.010583 0.275167,-0.010583 0.402167,-0.084667 0.211667,-0.074083 0.4445,-0.1375833 0.656167,-0.1693333 -0.01058,-0.03175 0.01058,-0.0635 0.05292,-0.074083 0.254,-0.1058334 0.53975,-0.1799167 0.814917,-0.22225 0.03175,-0.021167 0.0635,-0.042333 0.09525,-0.074083 0.254,-0.010583 0.518583,-0.052917 0.772583,-0.1481666 0.02117,0.010583 0.05292,0.03175 0.08467,0.042333 0.1905,-0.052917 0.381,-0.084667 0.592667,-0.09525 0.1905,-0.010583 0.370416,-0.084667 0.529166,-0.22225 0.07408,-0.03175 0.15875,-0.0635 0.232834,-0.127 -0.0635,0.010583 -0.105834,-0.021167 -0.127,-0.074083 0.0635,0.010583 0.07408,-0.021167 0.04233,-0.074083 0.0635,0.010583 0.116417,0.052917 0.169333,0.1058334 -0.07408,0.021167 -0.116416,0.0635 -0.137583,0.127 0.116417,0.021167 0.243417,0.021167 0.34925,-0.010583 -0.08467,0 -0.169333,0 -0.243417,-0.010583 0.0635,0 0.116417,-0.021167 0.169334,-0.0635 -0.0635,-0.03175 -0.07408,-0.084667 -0.03175,-0.1481667 -0.03175,-0.010583 -0.05292,-0.03175 -0.0635,-0.0635 0.02117,-0.010583 0.05292,-0.03175 0.08467,-0.042333 -0.01058,-0.03175 -0.02117,-0.052917 -0.02117,-0.084667 0,0.03175 -0.02117,0.042333 -0.05292,0.042333 0.03175,-0.021167 0.04233,-0.052917 0.02117,-0.084667 0.03175,0.010583 0.05292,0.010583 0.05292,-0.021167 -0.03175,-0.03175 -0.0635,-0.052917 -0.08467,-0.074083 0.03175,-0.074083 0.01058,-0.127 -0.05292,-0.1375833 0.01058,-0.052917 -0.01058,-0.1058333 -0.04233,-0.1481667 -0.34925,-0.010583 -0.6985,0 -1.04775,0.021167 0,0.042333 -0.01058,0.074083 -0.03175,0.084667 -0.03175,0 -0.05292,0 -0.05292,0 0.04233,-0.03175 0.04233,-0.052917 0,-0.0635 -0.09525,-0.03175 -0.169333,-0.010583 -0.22225,0.052917 -0.127,-0.0635 -0.254,-0.0635 -0.41275,-0.010583 0.01058,-0.010583 0.01058,-0.03175 0.02117,-0.042333 -0.391584,0.010583 -0.783167,0.03175 -1.185334,0.052917 0.05292,-0.1058333 0.127,-0.1799166 0.22225,-0.254 0.01058,-0.03175 0.02117,-0.0635 0.02117,-0.1058333 0.402167,-0.28575 0.804333,-0.5820833 1.217083,-0.85725 -0.01058,-0.03175 -0.02117,-0.0635 -0.03175,-0.1164167 z M 42.227602,0.78951085 c 0,-0.0423333 0.03175,-0.0740833 0.09525,-0.0846667 -0.01058,0.0423333 -0.04233,0.0740833 -0.09525,0.0846667 z m 2.06375,5.87374995 c 0.09525,-0.03175 0.179917,-0.042333 0.264583,-0.052917 -0.07408,0.074083 -0.169333,0.1164167 -0.264583,0.1481667 0.01058,-0.03175 0.01058,-0.0635 0,-0.09525 z m -0.243417,0.1693333 c -0.01058,-0.0635 0.01058,-0.084667 0.08467,-0.074083 -0.03175,0.021167 -0.05292,0.042333 -0.08467,0.074083 z m -4.03225,0.381 c 0.03175,-0.03175 0.07408,-0.0635 0.116417,-0.074083 0,0.03175 0.01058,0.052917 0.04233,0.042333 -0.05292,0.052917 -0.105833,0.09525 -0.15875,0.1058333 -0.01058,-0.03175 -0.01058,-0.0635 0,-0.074083 z M 30.607108,2.9379275 c -0.02117,0 -0.04233,0.010583 -0.0635,0.021167 0.03175,0 0.05292,-0.010583 0.07408,-0.021167 -0.01058,-0.010583 -0.01058,-0.010583 -0.01058,0 z m 0.635,1.0900833 0.09525,0.010583 c -0.03175,-0.010583 -0.0635,-0.021167 -0.09525,-0.010583 z M 27.188691,3.0860942 c -0.05292,0.09525 -0.09525,0.2116666 -0.105833,0.3386666 0,-0.03175 -0.01058,-0.042333 -0.03175,-0.021167 0.01058,0.127 -0.01058,0.254 -0.05292,0.3915834 -0.04233,0.1693333 -0.08467,0.3386666 -0.116417,0.5185833 -0.07408,0.4339167 -0.15875,0.85725 -0.296333,1.27 -0.05292,-0.15875 -0.116417,-0.15875 -0.169333,-0.010583 -0.03175,0.1058333 -0.05292,0.2116666 -0.0635,0.3175 -0.01058,0.052917 -0.04233,0.09525 -0.07408,0.1375833 v 0.3598333 c -0.05292,0.074083 -0.05292,0.1375833 0,0.1799167 0.04233,0.03175 0.07408,0.074083 0.08467,0.1164166 0.01058,0.03175 0.02117,0.052917 0.05292,0.084667 -0.05292,0.052917 -0.05292,0.09525 -0.01058,0.1481667 -0.127,0.010583 -0.116416,0.042333 0.03175,0.074083 0.08467,0.03175 0.116417,0.084667 0.105834,0.1693333 0.05292,0.052917 0.09525,0.127 0.127,0.2010834 0.03175,0.03175 0.07408,0.042333 0.116416,0.021167 0.01058,0.042333 0.02117,0.1058334 0.04233,0.15875 0.03175,0.052917 0.07408,0.1058334 0.148166,0.1481667 0.137584,-0.021167 0.264584,-0.0635 0.381,-0.1164167 0.179917,-0.052917 0.34925,-0.1058333 0.529167,-0.1375833 0.07408,0.010583 0.15875,0 0.243417,-0.010583 0.05292,0 0.116416,0 0.169333,0.010583 0.07408,-0.010583 0.15875,-0.03175 0.232833,-0.052917 0.08467,-0.03175 0.1905,-0.042333 0.28575,-0.03175 0.15875,-0.0635 0.306917,-0.1058333 0.47625,-0.1164166 0.137584,0.021167 0.275167,0.021167 0.41275,0 0.179917,-0.074083 0.34925,-0.1058334 0.53975,-0.1164167 0.0635,-0.052917 0.137584,-0.084667 0.232834,-0.09525 0.07408,-0.042333 0.127,-0.09525 0.179916,-0.1693333 0.02117,-0.052917 0.05292,-0.1058334 0.08467,-0.15875 0.08467,-0.042333 0.1905,-0.074083 0.306917,-0.09525 0.05292,-0.127 0.169333,-0.1905 0.34925,-0.1693334 0.09525,-0.052917 0.1905,-0.084667 0.275166,-0.1058333 0.232834,-0.084667 0.465667,-0.127 0.709084,-0.1164167 0,-0.042333 0.02117,-0.0635 0.07408,-0.052917 -0.05292,0 -0.116417,-0.010583 -0.169333,-0.021167 0.179916,-0.09525 0.359833,-0.1799167 0.560916,-0.2434166 0.01058,-0.074083 0.07408,-0.127 0.179917,-0.1375834 -0.02117,0 -0.03175,-0.010583 -0.02117,-0.021167 0.07408,-0.084667 0.01058,-0.127 -0.1905,-0.1375834 -0.148166,-0.021167 -0.28575,-0.021167 -0.4445,-0.010583 -0.09525,0 -0.179916,0 -0.275166,-0.010583 -0.15875,0.021167 -0.328084,0.03175 -0.497417,0.021167 -0.254,0.03175 -0.497417,0.042333 -0.751417,0.0635 h -0.105833 c -0.05292,-0.010583 -0.105833,0 -0.15875,0.021167 -0.02117,-0.010583 -0.04233,-0.03175 -0.05292,-0.042333 -0.05292,0.010583 -0.09525,0.021167 -0.148166,0.021167 -0.01058,-0.010583 -0.01058,-0.021167 -0.02117,-0.021167 0,0 0,0.010583 -0.01058,0.021167 -0.402167,-0.021167 -0.79375,-0.021167 -1.195917,0 -0.148167,0 -0.306917,-0.010583 -0.465667,-0.021167 -0.116416,-0.0635 -0.137583,-0.1693334 -0.09525,-0.3069167 -0.01058,-0.127 -0.02117,-0.2751667 -0.01058,-0.41275 0.105833,-0.1164167 0.254,-0.1905 0.423333,-0.2434167 0.232834,0.010583 0.4445,-0.021167 0.66675,-0.1164166 0.116417,-0.03175 0.232834,-0.0635 0.34925,-0.084667 0.127,-0.03175 0.254,-0.084667 0.359834,-0.1375833 0.09525,-0.0635 0.211666,-0.1058334 0.328083,-0.127 0.03175,0 0.0635,0 0.105833,-0.010583 0.04233,-0.03175 0.09525,-0.0635 0.15875,-0.074083 0.05292,0 0.169334,-0.052917 0.3175,-0.1481667 -0.07408,0 -0.127,0.010583 -0.1905,0.03175 -0.05292,0.03175 -0.137583,0.03175 -0.232833,-0.010583 0.137583,-0.010583 0.264583,-0.052917 0.381,-0.1058333 0.116417,0.010583 0.232833,-0.010583 0.338667,-0.052917 -0.07408,-0.010583 -0.137584,-0.03175 -0.169334,-0.0635 0.07408,0.010583 0.137584,0 0.201084,-0.042333 -0.07408,-0.021167 -0.169334,-0.021167 -0.275167,-0.010583 -0.04233,0 -0.08467,0 -0.127,0.010583 -0.201083,0.010583 -0.41275,0 -0.60325,-0.03175 0.232833,-0.03175 0.486833,-0.042333 0.719667,-0.052917 0.127,-0.052917 0.264583,-0.1058333 0.391583,-0.1375833 0.179917,-0.1058334 0.370417,-0.1905 0.560917,-0.254 0.0635,-0.03175 0.127,-0.0635 0.1905,-0.084667 0.04233,-0.03175 0.0635,-0.0635 0.09525,-0.1058333 -0.169334,0.010583 -0.338667,0 -0.508,-0.03175 -0.116417,0 -0.243417,0 -0.359834,0.010583 -0.07408,0 -0.15875,-0.010583 -0.243416,-0.021167 -0.116417,-0.03175 -0.243417,-0.03175 -0.359834,-0.021167 -0.07408,-0.010583 -0.148166,-0.010583 -0.22225,0.021167 -0.02117,0.010583 -0.05292,0.021167 -0.09525,0.010583 0,-0.042333 0.03175,-0.052917 0.08467,-0.042333 -0.148167,0.021167 -0.306917,0.010583 -0.4445,-0.010583 0.01058,-0.021167 0.03175,-0.03175 0.0635,-0.042333 -0.05292,0 -0.105833,0.010583 -0.15875,0.021167 0.02117,-0.010583 0.03175,0 0.03175,0.03175 -0.02117,-0.010583 -0.03175,-0.03175 -0.05292,-0.052917 -0.22225,0.03175 -0.433916,0.052917 -0.656166,0.084667 -0.179917,-0.03175 -0.359834,-0.042333 -0.550334,-0.021167 -0.02117,-0.052917 -0.07408,-0.074083 -0.148166,-0.042333 -0.04233,-0.042333 -0.04233,-0.09525 -0.01058,-0.1693334 -0.01058,-0.09525 -0.01058,-0.1905 0,-0.2751666 0,-0.052917 0,-0.1164167 0.01058,-0.1693334 0.0635,-0.010583 0.127,0 0.201083,0.010583 0.05292,0.021167 0.105833,0.03175 0.15875,0.021167 0.137583,-0.010583 0.275167,0.021167 0.391583,0.084667 0.105834,0 0.201084,0.010583 0.306917,0.021167 0.169333,0.010583 0.328083,0.010583 0.497417,0 0.08467,-0.021167 0.179916,-0.03175 0.264583,-0.021167 0.105833,0.010583 0.201083,0 0.296333,-0.052917 0.105834,-0.010583 0.201084,-0.021167 0.3175,-0.03175 0.07408,0.010583 0.137584,0.010583 0.201084,-0.021167 0.148166,0 0.28575,-0.042333 0.402166,-0.127 0.03175,-0.021167 0.05292,-0.042333 0.07408,-0.074083 0.05292,-0.010583 0.09525,-0.042333 0.105833,-0.09525 0.02117,-0.042333 0.04233,-0.084667 0.07408,-0.1375833 0.03175,-0.09525 0.03175,-0.1799167 0,-0.2645833 0.02117,-0.41275 0.03175,-0.81491669 0.03175,-1.21708335 -0.01058,0.0105833 -0.03175,0.0105833 -0.05292,0 0.01058,-0.0105833 0.03175,-0.03175 0.05292,-0.0529167 -0.275166,0.0529167 -0.560916,0.09525 -0.836083,0.13758333 -0.169333,0.0211667 -0.328083,0.0423333 -0.486833,0.0740833 -0.0635,-0.0105833 -0.09525,0 -0.105834,0.0529167 -0.04233,-0.03175 -0.07408,-0.03175 -0.116416,-0.0211667 -0.370417,0.0105833 -0.719667,0.0211667 -1.0795,0.03175 0.03175,-0.0105833 0.05292,0 0.07408,0.0105833 -0.211667,-0.0105833 -0.41275,-0.0105833 -0.613833,0 -0.179917,-0.03175 -0.370417,-0.03175 -0.550334,0 -0.127,0.03175 -0.254,0.03175 -0.391583,0 -0.169333,-0.0105833 -0.34925,-0.03175 -0.518583,-0.0423333 -0.22225,0.0105833 -0.423334,-0.0211667 -0.624417,-0.0740833 -0.105833,-0.0211667 -0.211667,-0.0211667 -0.3175,-0.0105833 -0.201083,0.0105833 -0.381,0.0105833 -0.5715,0 0.09525,0.15875 0.243417,0.26458333 0.4445,0.32808333 0.03175,0.0529167 0.07408,0.09525 0.127,0.13758329 0.05292,0.0635 0.09525,0.1164167 0.169333,0.1481667 0.07408,0.0635 0.15875,0.1164167 0.232834,0.1905 0.01058,-0.021167 0.02117,-0.03175 0.04233,-0.03175 -0.01058,0.03175 0.01058,0.0635 0.07408,0.084667 h -0.07408 c 0.07408,0.042333 0.15875,0.0635 0.264583,0.0635 -0.03175,0.042333 -0.03175,0.0635 0.02117,0.052917 -0.04233,0.03175 -0.05292,0.074083 -0.02117,0.1058334 0.02117,0.021167 0.04233,0.042333 0.07408,0.052917 -0.04233,0.2645834 -0.08467,0.508 -0.137584,0.7725834 -0.01058,0.084667 -0.02117,0.15875 -0.04233,0.2328333 -0.03175,0.0635 -0.0635,0.127 -0.07408,0.1905 -0.01058,0.042333 -0.04233,0.0635 -0.08467,0.052917 -0.01058,-0.021167 0,-0.042333 0.02117,-0.052917 -0.02117,0.010583 -0.03175,0.042333 -0.02117,0.084667 -0.03175,0.042333 -0.02117,0.084667 0.03175,0.127 z m 2.624667,-2.41300002 c 0.03175,-0.0105833 0.0635,-0.0105833 0.08467,0 -0.03175,0.03175 -0.0635,0.03175 -0.08467,0 z m 1.608666,2.91041662 c 0.01058,-0.021167 0.03175,-0.03175 0.05292,-0.042333 0,0.03175 -0.02117,0.052917 -0.05292,0.042333 z m -0.370416,0.254 c 0.07408,-0.03175 0.137583,-0.042333 0.201083,-0.021167 -0.07408,0.084667 -0.148167,0.084667 -0.201083,0.021167 z M 29.167774,2.9590942 c -0.05292,0.021167 -0.05292,0.021167 0.02117,0 0.01058,-0.010583 0,-0.010583 -0.02117,0 z m 2.4765,0.0635 c 0.08467,-0.03175 0.08467,-0.03175 0.01058,-0.03175 -0.02117,0 -0.02117,0.021167 -0.01058,0.03175 z m 7.535333,2.1378333 c -0.04233,0 -0.07408,0.010583 -0.09525,0.03175 0.0635,0.010583 0.09525,0.010583 0.09525,-0.03175 z m -0.254,0.5820833 c 0.02117,0.010583 0.04233,0.010583 0.0635,-0.021167 -0.03175,-0.010583 -0.05292,0 -0.0635,0.021167 z m -0.03175,0.254 c -0.05292,-0.010583 -0.08467,0 -0.105833,0.03175 0.05292,0.03175 0.09525,0.021167 0.105833,-0.03175 z m -0.116416,0.1058333 c -0.07408,0 -0.137584,0.021167 -0.169334,0.074083 0.0635,0 0.127,-0.021167 0.169334,-0.074083 z m -0.264584,0.074083 c 0.05292,0.010583 0.07408,0.010583 0.07408,-0.021167 -0.03175,-0.010583 -0.05292,-0.010583 -0.07408,0.021167 z m 0.05292,0.042333 c -0.09525,0 -0.1905,0 -0.28575,-0.010583 0.07408,-0.042333 0.148167,-0.074083 0.232833,-0.084667 -0.05292,-0.021167 -0.09525,-0.042333 -0.127,-0.09525 0.116417,-0.010583 0.22225,-0.042333 0.306917,-0.09525 0.05292,-0.042333 0.09525,-0.042333 0.127,0.010583 0,-0.021167 0,-0.042333 0.01058,-0.052917 0.05292,0.03175 0.105834,0.021167 0.137584,-0.021167 0.01058,-0.042333 -0.01058,-0.074083 -0.04233,-0.09525 0,0.010583 0,0.021167 -0.01058,0.03175 -0.01058,-0.03175 -0.02117,-0.052917 -0.02117,-0.0635 -0.07408,0.010583 -0.137583,0.021167 -0.211666,0.010583 0.07408,-0.03175 0.148166,-0.0635 0.232833,-0.084667 0.02117,0.052917 0.05292,0.042333 0.09525,-0.010583 -0.03175,0.010583 -0.0635,0.010583 -0.08467,0 0.0635,0 0.105834,-0.021167 0.137584,-0.0635 -0.09525,0.03175 -0.1905,0.03175 -0.28575,0.021167 0.03175,-0.010583 0.0635,-0.021167 0.09525,-0.042333 0.0635,-0.010583 0.127,-0.03175 0.179916,-0.0635 v 0.03175 c 0.0635,-0.042333 0.127,-0.09525 0.179917,-0.1693334 -0.127,-0.021167 -0.15875,0 -0.137583,0.074083 -0.04233,0.021167 -0.105834,0.021167 -0.169334,0 0.07408,0 0.116417,-0.03175 0.127,-0.084667 -0.05292,-0.010583 -0.09525,-0.021167 -0.137583,-0.042333 0.01058,-0.03175 0.05292,-0.042333 0.116417,-0.03175 0,-0.042333 0.01058,-0.084667 0.02117,-0.1058334 0.02117,-0.021167 0.02117,-0.042333 0,-0.074083 0.02117,-0.021167 0.04233,-0.042333 0.08467,-0.052917 0.01058,-0.09525 -0.02117,-0.1481666 -0.105833,-0.1481666 -0.201084,0.03175 -0.391584,0.084667 -0.582084,0.1481666 -0.15875,0.052917 -0.306916,0.09525 -0.47625,0.127 -0.211666,0.052917 -0.433916,0.1164167 -0.656166,0.1905 -0.08467,0.03175 -0.1905,0.052917 -0.28575,0.084667 -0.137584,0 -0.243417,0.021167 -0.359834,0.074083 -0.28575,-0.042333 -0.5715,-0.127 -0.8255,-0.2645833 -0.66675,-0.254 -1.016,-0.6879167 -1.058333,-1.30175 0.03175,-0.15875 0.09525,-0.3175 0.179917,-0.4656667 0.05292,-0.1164166 0.105833,-0.2434166 0.15875,-0.3704166 0.09525,-0.1375833 0.201083,-0.2645833 0.3175,-0.381 0.105833,-0.127 0.232833,-0.22225 0.381,-0.3175 0.07408,-0.03175 0.137583,-0.074083 0.1905,-0.1164167 0.08467,-0.010583 0.15875,-0.042333 0.211666,-0.084667 0.04233,-0.03175 0.09525,-0.052917 0.15875,-0.0635 0.0635,-0.021167 0.127,-0.052917 0.1905,-0.084667 0.09525,0.0635 0.201084,0.084667 0.328084,0.042333 0.243416,0.010583 0.47625,0.042333 0.6985,0.1058334 0.116416,0.010583 0.22225,0.042333 0.328083,0.084667 0.09525,0 0.148167,0.042333 0.179917,0.1164167 0.04233,0.03175 0.08467,0.042333 0.127,0.03175 0.03175,0.074083 0.105833,0.1058333 0.211666,0.1164167 0.0635,0.052917 0.137584,0.074083 0.201084,0.0635 0.15875,0.084667 0.296333,0.0635 0.41275,-0.052917 0.15875,-0.1693333 0.28575,-0.3598333 0.370416,-0.5609167 0.05292,-0.2645833 0.07408,-0.5291666 0.05292,-0.79375 -0.0635,-0.15875 -0.116417,-0.32808329 -0.148167,-0.48683328 -0.09525,0.0211667 -0.201083,0.0211667 -0.28575,0.0105833 -0.08467,-0.0211667 -0.15875,-0.0529167 -0.232833,-0.0846667 -0.127,-0.0635 -0.254,-0.10583333 -0.391583,-0.13758333 -0.148167,-0.0105833 -0.28575,-0.03175 -0.433917,-0.0529167 -0.179917,0.0105833 -0.328083,-0.0105833 -0.486833,-0.0529167 -0.116417,-0.0105833 -0.232834,-0.0105833 -0.359834,0.0211667 -0.275166,0.0105833 -0.53975,0.0423333 -0.804333,0.10583333 -0.22225,0.0105833 -0.402167,0.0740833 -0.582083,0.1905 -0.116417,0.0211667 -0.211667,0.0423333 -0.3175,0.0529167 0.03175,-0.0105833 0.0635,-0.0105833 0.09525,0.0211667 -0.116417,0.0846667 -0.232834,0.15875 -0.34925,0.22224998 0.01058,-0.021167 0.03175,-0.042333 0.05292,-0.0529166 -0.1905,0.0211666 -0.34925,0.09525 -0.465666,0.2328333 -0.105834,0.127 -0.232834,0.254 -0.370417,0.3704167 -0.07408,0.074083 -0.127,0.1481666 -0.179917,0.2328333 -0.07408,0.127 -0.15875,0.254 -0.243416,0.381 -0.09525,0.15875 -0.179917,0.3069167 -0.254,0.4445 -0.08467,0.15875 -0.169334,0.3069167 -0.243417,0.4550833 -0.08467,0.15875 -0.116417,0.3280833 -0.08467,0.47625 0,-0.03175 0.01058,-0.042333 0.04233,-0.042333 0.02117,0.1164166 0.01058,0.22225 -0.04233,0.3175 0.01058,0.042333 0.01058,0.084667 -0.01058,0.127 0.0635,0.042333 0.0635,0.09525 0.01058,0.1693333 0.08467,0.1693333 0.137584,0.3704167 0.15875,0.5715 0.02117,0.1481667 0.0635,0.2963333 0.137584,0.4550833 0.04233,0.03175 0.08467,0.084667 0.105833,0.1375834 0.01058,0.1058333 0.05292,0.2010833 0.116417,0.2963333 0.07408,0.084667 0.137583,0.1905 0.169333,0.3175 0.08467,0.1164166 0.15875,0.2328333 0.254,0.3598333 0.116417,0.1481667 0.264583,0.2434167 0.4445,0.3175 0.09525,0.0635 0.1905,0.127 0.28575,0.2010833 0.04233,0.03175 0.09525,0.052917 0.15875,0.074083 h 0.09525 c 0.116417,0.074083 0.22225,0.1481666 0.338667,0.2328333 0.09525,0.021167 0.201083,0.042333 0.296333,0.0635 0.211667,0.1164167 0.433917,0.15875 0.66675,0.1481667 0.22225,0.0635 0.455083,0.084667 0.709083,0.084667 0.08467,-0.010583 0.169334,-0.010583 0.264584,-0.010583 0.137583,-0.03175 0.211666,-0.1058333 0.264583,-0.22225 -0.01058,0.010583 -0.02117,0.010583 -0.04233,0 0.0635,-0.074083 0.105833,-0.1481667 0.127,-0.22225 0.07408,-0.010583 0.105833,-0.042333 0.116416,-0.09525 -0.01058,-0.074083 0.02117,-0.1058333 0.116417,-0.1058333 0.02117,-0.074083 0.07408,-0.1375834 0.148167,-0.1693334 -0.08467,-0.052917 -0.116417,-0.1058333 -0.09525,-0.1799166 0.05292,0.010583 0.116416,0.021167 0.179916,0.021167 0.03175,-0.052917 0.09525,-0.074083 0.169334,-0.0635 -0.04233,-0.042333 -0.08467,-0.084667 -0.137584,-0.127 0.04233,0 0.08467,-0.010583 0.116417,-0.021167 z m -5.122336,-2.719916 c -0.03175,0.010583 -0.03175,-0.010583 -0.02117,-0.042333 0.01058,-0.010583 0.02117,0 0.02117,0.042333 z m 0.211666,0.4656667 c -0.03175,-0.010583 -0.04233,-0.042333 -0.03175,-0.084667 0.03175,0.021167 0.04233,0.052917 0.03175,0.084667 z m 0,0.1481667 c -0.01058,-0.042333 -0.02117,-0.084667 -0.01058,-0.127 0.03175,0.1375833 0.09525,0.254 0.15875,0.3598333 -0.02117,0.03175 -0.03175,0.0635 -0.01058,0.09525 -0.09525,-0.09525 -0.137584,-0.1905 -0.137584,-0.3280833 z m 5.23875,1.3758333 c 0.03175,0.03175 0.05292,0.03175 0.07408,0 -0.04233,0.052917 -0.116417,0.084667 -0.22225,0.074083 0.04233,-0.042333 0.09525,-0.0635 0.148166,-0.074083 z m -0.381,0.4445 c 0.02117,-0.084667 0.08467,-0.1058333 0.179917,-0.074083 -0.04233,0.0635 -0.09525,0.084667 -0.179917,0.074083 z m 0.518584,-0.3598333 c 0.04233,0.021167 0.07408,0.03175 0.105833,0.021167 -0.05292,0 -0.0635,-0.010583 -0.04233,-0.03175 -0.02117,-0.010583 -0.04233,-0.010583 -0.0635,0.010583 z M 23.516266,3.0543442 c -0.127,0.1799166 -0.28575,0.3492499 -0.465666,0.4868333 -0.05292,-0.3598333 -0.22225,-0.6561667 -0.53975,-0.8995833 -0.465667,0.508 -0.931334,1.0265833 -1.397,1.5451666 -0.47625,0.5291667 -0.772584,1.1324167 -0.899584,1.8415 0.03175,0.2328333 0.08467,0.4550833 0.169334,0.6561666 0.116416,0.1164167 0.243416,0.2116667 0.391583,0.2645834 0.3175,0.22225 0.66675,0.41275 1.037167,0.5503333 0.391583,0.2328333 0.79375,0.2645833 1.2065,0.09525 0.179916,-0.1164167 0.3175,-0.2434167 0.423333,-0.4233333 0.338667,-0.15875 0.656167,-0.34925 0.9525,-0.6138334 -0.03175,0.010583 -0.04233,0 -0.05292,-0.021167 0.338667,-0.28575 0.613834,-0.6138333 0.85725,-0.98425 -0.0635,-0.03175 -0.09525,-0.074083 -0.105833,-0.127 0.08467,-0.09525 0.127,-0.2116667 0.137583,-0.3280833 0.179917,-0.084667 0.3175,-0.2116667 0.41275,-0.381 0.08467,-0.1693334 0.179917,-0.3386667 0.296334,-0.4868334 -0.03175,-0.15875 0.02117,-0.254 0.148166,-0.28575 -0.07408,-0.127 -0.137583,-0.2645833 -0.179916,-0.4021666 -0.105834,-0.03175 -0.201084,-0.084667 -0.264584,-0.1481667 -0.03175,0 -0.05292,0.010583 -0.07408,0.021167 -0.05292,-0.0635 -0.116417,-0.1164167 -0.169333,-0.1693333 -0.04233,-0.010583 -0.08467,-0.010583 -0.127,0 -0.08467,-0.09525 -0.179917,-0.1799167 -0.28575,-0.2434167 -0.0635,0.010583 -0.116417,0.021167 -0.15875,0.052917 C 24.79685,3.0120114 24.7651,2.9802614 24.722766,2.948511 24.60635,2.916761 24.489933,2.863844 24.394683,2.7791777 c -0.0635,0.021167 -0.09525,0.052917 -0.116417,0.09525 -0.09525,-0.0635 -0.211666,-0.09525 -0.328083,-0.09525 -0.127,0.1164167 -0.275167,0.2116667 -0.433917,0.2751665 z m 0.899584,0.5397499 c 0.05292,0.15875 0.01058,0.2751667 -0.116417,0.3280834 0.02117,0.021167 0.0635,0.021167 0.116417,0 0.03175,0.09525 0.08467,0.1905 0.137583,0.28575 -0.328083,0.5715 -0.762,1.04775 -1.312333,1.4181666 -0.550334,0.3598333 -1.121834,0.66675 -1.703917,0.9101667 -0.03175,-0.010583 -0.0635,-0.03175 -0.09525,-0.042333 -0.0635,-0.1164166 -0.05292,-0.22225 0.02117,-0.3280833 -0.02117,-0.042333 -0.04233,-0.042333 -0.05292,-0.010583 0.05292,-0.1905 0.116417,-0.3704167 0.201083,-0.53975 0.05292,-0.3280833 0.179917,-0.60325 0.391584,-0.85725 0.03175,0 0.05292,0 0.08467,-0.010583 0.09525,-0.1375834 0.1905,-0.28575 0.264584,-0.4339167 0.04233,-0.03175 0.08467,-0.052917 0.137583,-0.084667 0.08467,-0.15875 0.1905,-0.3069166 0.28575,-0.4550833 0.127,0.0635 0.201083,0.021167 0.22225,-0.1375833 h 0.275167 c 0.01058,0.052917 -0.01058,0.09525 -0.05292,0.127 0.359833,-0.2434167 0.762,-0.2963334 1.195917,-0.1693334 z m -3.577167,1.0583334 c 0.01058,-0.052917 0.05292,-0.084667 0.116417,-0.074083 -0.01058,0.052917 -0.05292,0.084667 -0.116417,0.074083 z m -0.296333,0.4445 c 0.01058,-0.052917 0.05292,-0.084667 0.116416,-0.074083 -0.03175,0.052917 -0.0635,0.074083 -0.116416,0.074083 z m -0.01853,-1.3546667 c -0.05292,0.010583 -0.09525,0.021167 -0.127,0.042333 0.05292,0.010583 0.09525,0 0.127,-0.042333 z m -3.566583,3.7359166 c 0.03175,0.03175 0.04233,0.0635 0.02117,0.09525 0.09525,0 0.15875,0.03175 0.201083,0.1058334 0.232833,-0.052917 0.455083,-0.084667 0.6985,-0.1058334 -0.01058,0.03175 0,0.052917 0.02117,0.0635 0.232833,-0.15875 0.455083,-0.3386666 0.624416,-0.5715 -0.03175,0.03175 -0.0635,0.03175 -0.09525,0 0.127,-0.1164166 0.22225,-0.2645833 0.275167,-0.4233333 -0.04233,0.010583 -0.07408,0.010583 -0.09525,0 0.08467,-0.0635 0.137583,-0.127 0.148167,-0.2116667 0.03175,-0.010583 0.05292,-0.021167 0.07408,-0.010583 0,-0.03175 -0.01058,-0.0635 -0.02117,-0.09525 0.137584,-0.2328333 0.306917,-0.4339166 0.486834,-0.6244166 0.1905,-0.1693334 0.338666,-0.3915834 0.4445,-0.6244167 -0.550334,0.381 -1.164167,0.6773333 -1.80975,0.889 0,-0.1164167 0.04233,-0.2010833 0.105833,-0.2751667 0.05292,-0.1799166 0.169333,-0.3175 0.34925,-0.41275 0.07408,-0.2328333 0.22225,-0.4233333 0.4445,-0.53975 0.0635,-0.15875 0.169333,-0.3069166 0.296333,-0.4233333 0.296334,-0.074083 0.582084,-0.1905 0.85725,-0.3386667 -0.01058,0.021167 -0.02117,0.021167 -0.04233,0 0.201083,-0.074083 0.370417,-0.15875 0.53975,-0.2751666 -0.04233,0.021167 -0.0635,0.010583 -0.0635,-0.03175 0.0635,0.010583 0.116417,0 0.148167,-0.021167 -0.02117,-0.021167 -0.05292,-0.03175 -0.08467,-0.042333 0.05292,-0.010583 0.09525,0 0.137583,0.021167 0.0635,-0.074083 0.137584,-0.1375833 0.211667,-0.1905 -0.04233,0.052917 -0.07408,0.052917 -0.09525,0 0.03175,0 0.0635,-0.021167 0.105833,-0.052917 0.01058,-0.0635 0.01058,-0.127 0,-0.1905 0.03175,0 0.0635,-0.021167 0.08467,-0.052917 -0.03175,0 -0.04233,-0.03175 -0.03175,-0.084667 -0.338667,0.03175 -0.687917,0.0635 -1.026583,0.1058333 -0.03175,0.021167 -0.07408,0.03175 -0.127,0.03175 0,-0.021167 0.01058,-0.042333 0.03175,-0.052917 -0.105834,0.0635 -0.232834,0.074083 -0.34925,0.042333 0.09525,-0.084667 0.127,-0.1905 0.105833,-0.3175 0.07408,-0.1164167 0.116417,-0.2328334 0.137583,-0.3598334 -0.02117,0.010583 -0.04233,0 -0.05292,-0.021167 0.105833,-0.2434167 0.07408,-0.4445 -0.08467,-0.6455834 -0.15875,-0.1799166 -0.328083,-0.3386666 -0.518583,-0.4656666 -0.03175,0.1799166 -0.09525,0.3175 -0.201084,0.4445 -0.05292,0.22225 -0.169333,0.41275 -0.328083,0.5715 -0.148167,0.2434166 -0.275167,0.508 -0.391583,0.7725833 -0.02117,-0.010583 -0.03175,0 -0.03175,0.021167 0,0.052917 -0.03175,0.09525 -0.08467,0.1481666 -0.433917,0.074083 -0.867833,0.1164167 -1.30175,0.127 -0.07408,-0.052917 -0.137583,-0.127 -0.179917,-0.22225 -0.05292,0.15875 -0.03175,0.2963333 0.04233,0.4339167 -0.04233,-0.03175 -0.0635,-0.021167 -0.0635,0.03175 0.04233,0.03175 0.07408,0.074083 0.09525,0.1164166 -0.02117,0.010583 -0.03175,0.021167 -0.03175,0.042333 0.105833,0.2010833 0.232833,0.3915833 0.402166,0.5503333 0.04233,0.1375833 0.137584,0.22225 0.264584,0.2751667 -0.03175,0.09525 -0.07408,0.2010833 -0.116417,0.3069166 0.02117,0.010583 0.04233,0.03175 0.03175,0.0635 -0.179917,0.4233334 -0.359833,0.85725 -0.529167,1.2805833 -0.03175,-0.021167 -0.05292,-0.010583 -0.05292,0.042333 0.04233,0.0635 0.02117,0.1164166 -0.0635,0.1481666 0.01058,0.052917 0,0.1164167 -0.03175,0.1693334 0.0635,0.021167 0.08467,0.0635 0.0635,0.1375833 -0.03175,-0.010583 -0.05292,-0.010583 -0.07408,0.010583 0.05292,0.074083 0.0635,0.127 0.03175,0.2010834 0.07408,0.021167 0.148167,0.03175 0.211667,0.021167 -0.08467,0 -0.127,0.042333 -0.127,0.1164167 0.0635,0 0.116417,-0.010583 0.169333,-0.042333 0.01058,0.03175 0.03175,0.052917 0.05292,0.084667 -0.07408,-0.03175 -0.105833,0 -0.09525,0.074083 0.03175,0.010583 0.07408,0 0.116417,-0.021167 0.01058,0.03175 -0.01058,0.052917 -0.0635,0.052917 0.09525,0.021167 0.179916,0.042333 0.254,0.0635 -0.02117,0.010583 -0.04233,0.010583 -0.0635,0.021167 0.08467,0 0.09525,0.021167 0.04233,0.0635 z m 3.122083,-3.6829999 c 0.07408,-0.09525 0.15875,-0.1164167 0.275167,-0.052917 -0.09525,-0.010583 -0.15875,0.021167 -0.169333,0.09525 -0.02117,-0.03175 -0.0635,-0.042333 -0.105834,-0.042333 z m -0.264583,0.084667 c 0.07408,-0.074083 0.169333,-0.09525 0.28575,-0.0635 -0.05292,0.03175 -0.105833,0.052917 -0.15875,0.042333 0.05292,0 0.116417,0.010583 0.179917,0.021167 -0.09525,0.042333 -0.1905,0.042333 -0.306917,0 z m -0.338667,0.22225 c 0.01058,-0.052917 0.05292,-0.074083 0.116417,-0.0635 -0.03175,0.03175 -0.0635,0.052917 -0.116417,0.0635 z m -4.159255,1.8309163 c 0.01058,0.010583 0.03175,0.010583 0.05292,0.010583 -0.01058,-0.03175 -0.04233,-0.052917 -0.08467,-0.052917 0.05292,-0.052917 0.0635,-0.1058334 0.03175,-0.1375834 0.03175,-0.021167 0.0635,-0.021167 0.09525,0 0.02117,-0.1058333 0.07408,-0.1905 0.148167,-0.2645833 0.01058,-0.052917 0.01058,-0.1164167 0,-0.1693333 -0.03175,0.042333 -0.05292,0.042333 -0.08467,0.010583 0.05292,-0.03175 0.105833,-0.052917 0.15875,-0.0635 0.0635,-0.15875 0.127,-0.3280833 0.15875,-0.508 0.148167,-0.15875 0.22225,-0.3598333 0.211667,-0.5820833 0.09525,-0.1058334 0.137583,-0.2434167 0.127,-0.3915834 0.0635,-0.03175 0.105833,-0.074083 0.127,-0.1164166 -0.01058,-0.0635 0,-0.1058334 0.04233,-0.1375834 -0.116417,-0.0635 -0.15875,-0.1375833 -0.116417,-0.2434166 -0.04233,0 -0.0635,-0.021167 -0.0635,-0.0635 0.02117,-0.074083 0,-0.1481667 -0.05292,-0.2116667 -0.0635,-0.042333 -0.105834,-0.1058333 -0.127,-0.1799166 -0.0635,-0.042333 -0.127,-0.09525 -0.201084,-0.1481667 0.01058,0.03175 0,0.052917 -0.03175,0.0635 0.01058,-0.0635 -0.01058,-0.074083 -0.05292,-0.042333 -0.211667,0.3175 -0.402167,0.6773333 -0.550334,1.0477499 0.01058,0.010583 0.02117,0.021167 0.04233,0.03175 -0.105834,0.010583 -0.137584,0.0635 -0.08467,0.15875 -0.02117,0.010583 -0.03175,0 -0.04233,-0.021167 -0.01058,0.03175 0.01058,0.052917 0.04233,0.0635 -0.05292,0.010583 -0.116417,0.042333 -0.169333,0.084667 -0.05292,0.052917 -0.07408,0.1058334 -0.04233,0.1693334 -0.73025,0.4021666 -1.439333,0.8149166 -2.137833,1.2488333 0.137583,-0.2645833 0.201083,-0.53975 0.1905,-0.8360833 0.01058,-0.052917 0.04233,-0.084667 0.08467,-0.1058334 -0.03175,0.010583 -0.05292,0 -0.07408,-0.010583 0.05292,-0.03175 0.07408,-0.074083 0.105834,-0.1164167 -0.03175,0.010583 -0.04233,0.010583 -0.05292,0 0.04233,-0.1481666 0.105833,-0.3175 0.179917,-0.47625 -0.01058,-0.09525 0.01058,-0.1905 0.07408,-0.28575 0.05292,-0.084667 0.05292,-0.1799166 0,-0.2645833 0.03175,-0.03175 0.05292,-0.052917 0.07408,-0.0635 -0.0635,-0.09525 -0.116416,-0.2010833 -0.148166,-0.3175 -0.105834,-0.03175 -0.179917,-0.09525 -0.232834,-0.1799166 -0.09525,0 -0.1905,-0.03175 -0.28575,-0.084667 0.01058,0.03175 -0.01058,0.042333 -0.04233,0.052917 0.03175,0.1164166 0.01058,0.2116666 -0.04233,0.2963333 -0.07408,0.084667 -0.105834,0.1799167 -0.116417,0.2751666 -0.15875,0.254 -0.3175,0.508 -0.465667,0.7408334 -0.03175,0.127 -0.08467,0.2328333 -0.148166,0.34925 -0.137584,0.22225 -0.254,0.4550833 -0.34925,0.7090833 0.05292,0.03175 0.03175,0.052917 -0.04233,0.0635 -0.03175,0.084667 -0.04233,0.1693333 -0.05292,0.2645833 -0.01058,0.09525 -0.07408,0.1375834 -0.169334,0.1375834 0.02117,0.042333 0.04233,0.0635 0.09525,0.052917 -0.03175,0.052917 -0.07408,0.074083 -0.127,0.0635 0.02117,0.010583 0.04233,0.010583 0.05292,0.010583 -0.05292,0.0635 -0.08467,0.1375833 -0.116417,0.2222499 0.01058,0.1693334 0.02117,0.3598334 0.01058,0.53975 0.07408,0.03175 0.105833,0.084667 0.116416,0.15875 -0.02117,0 -0.04233,0.021167 -0.0635,0.052917 0.05292,-0.010583 0.09525,0 0.127,0.03175 -0.04233,0.010583 -0.05292,0.042333 -0.04233,0.09525 0.0635,0.021167 0.116417,0.052917 0.169333,0.084667 -0.02117,0.010583 -0.03175,0.021167 -0.04233,0.042333 0.07408,-0.03175 0.137583,-0.021167 0.1905,0.03175 -0.01058,0.042333 -0.03175,0.052917 -0.0635,0.03175 0.01058,0.03175 0.03175,0.052917 0.08467,0.052917 0.04233,0.010583 0.04233,0.03175 0,0.084667 0.08467,0.010583 0.169333,0.021167 0.243416,0.03175 -0.02117,0.021167 -0.03175,0.052917 -0.03175,0.084667 0.127,-0.010583 0.1905,0.042333 0.201084,0.1375833 0.296333,0.2010834 0.560916,0.1799167 0.8255,-0.052917 0.09525,-0.03175 0.169333,-0.052917 0.264583,-0.074083 0,-0.052917 0.03175,-0.1058333 0.08467,-0.1481666 0.22225,-0.074083 0.402166,-0.2010834 0.5715,-0.3704167 0.08467,0.03175 0.137583,0.084667 0.1905,0.1481667 -0.03175,-0.010583 -0.0635,0 -0.07408,0.010583 0.02117,0 0.0635,0.010583 0.09525,0.042333 -0.0635,0 -0.07408,0.021167 -0.02117,0.074083 0,-0.03175 0.01058,-0.042333 0.03175,-0.052917 0.01058,0.03175 0.02117,0.0635 0.05292,0.084667 -0.05292,-0.03175 -0.07408,-0.021167 -0.0635,0.03175 0.105834,-0.021167 0.201084,-0.010583 0.296334,0.021167 -0.0635,0.03175 -0.137584,0.03175 -0.211667,0 0.07408,0.03175 0.15875,0.0635 0.232833,0.09525 0,-0.09525 0.03175,-0.127 0.116417,-0.09525 -0.05292,0.021167 -0.0635,0.042333 -0.03175,0.0635 0.03175,-0.052917 0.0635,-0.052917 0.07408,0.021167 0.09525,-0.010583 0.179917,-0.03175 0.275167,-0.084667 -0.05292,0.03175 -0.07408,0.074083 -0.08467,0.1164167 0.08467,0.010583 0.15875,0 0.243417,-0.052917 -0.03175,-0.052917 -0.01058,-0.1058333 0.05292,-0.1375833 -0.03175,0.010583 -0.0635,0.021167 -0.09525,0.052917 0,-0.03175 -0.01058,-0.042333 -0.02117,-0.052917 0,0.021167 -0.01058,0.042333 -0.02117,0.052917 0.0635,-0.1799167 0.137584,-0.34925 0.232834,-0.508 -0.04233,0.010583 -0.07408,0.010583 -0.09525,0 0.04233,-0.074083 0.105833,-0.1058334 0.179916,-0.1058334 0.01058,-0.021167 0.01058,-0.052917 0,-0.074083 -0.01058,0.03175 -0.03175,0.042333 -0.04233,0.021167 0.09525,-0.0635 0.116417,-0.1375834 0.04233,-0.2116667 0.08467,-0.0635 0.169334,-0.1481667 0.22225,-0.2434167 -0.03175,-0.010583 -0.04233,-0.042333 -0.01058,-0.084667 z m -0.1905,0.15875 c 0.03175,-0.042333 0.05292,-0.1058334 0.0635,-0.15875 0.01058,0.010583 0.03175,0.010583 0.05292,0.010583 0,0.09525 -0.04233,0.1375833 -0.116417,0.1481667 z m -0.338667,0.7514166 c -0.03175,-0.010583 -0.03175,-0.021167 0,-0.042333 -0.03175,-0.010583 -0.04233,-0.021167 -0.05292,-0.03175 0.02117,-0.052917 0.0635,-0.084667 0.09525,-0.1164167 -0.01058,0.074083 -0.03175,0.1375834 -0.04233,0.1904997 z M 14.67123,7.0230941 c 0.05292,-0.084667 0.08467,-0.084667 0.116416,0 z M 10.173313,0.84242751 10.120393,0.34501085 c 0.02117,-0.27516666 -0.09525,-0.39158332 -0.3704162,-0.32808333 -0.4550831,0.28575 -0.867833,0.62441666 -1.2382497,1.02658328 -1.1006667,1.1006667 -2.286,2.12725 -3.5348333,3.0691667 -0.85725,0.6244166 -1.74625,1.1853333 -2.6564166,1.7039166 -0.22225,0.1481667 -0.4550834,0.2751667 -0.6879167,0.41275 -0.2434167,0.1375833 -0.47625,0.254 -0.73024998,0.3598333 -0.24341666,0.1164167 -0.48683333,0.22225 -0.69849999,0.3280834 -0.22225,0.09525 -0.254,0.28575 -0.13758333,0.5609166 0.08466666,0.2116667 0.20108333,0.3915834 0.33866666,0.5609167 0.14816666,0.1375833 0.27516666,0.2963333 0.37041666,0.4974167 0.10583333,0.1587499 0.23283338,0.2857499 0.39158328,0.4021666 0.2328334,0.0635 0.4550834,0.010583 0.66675,-0.15875 0.22225,-0.1693333 0.4339167,-0.3280833 0.635,-0.4868333 0.3175,-0.1905 0.6138334,-0.41275 0.8995834,-0.6561667 0.4233333,-0.2645833 0.7831666,-0.60325 1.0794999,-0.98425 0.09525,-0.042333 0.1693334,-0.1058333 0.22225,-0.1905 0.09525,-0.1058333 0.1799167,-0.2010833 0.2963334,-0.2751666 0.03175,0.010583 0.0635,0.03175 0.09525,0.042333 -0.010583,0.1375833 0.052917,0.2010833 0.1905,0.2010833 0.127,0.010583 0.254,0 0.3704166,-0.010583 0.4021667,0 0.79375,-0.010583 1.1959167,-0.042333 0.1164166,-0.021167 0.2328333,-0.052917 0.381,-0.09525 0.1481666,-0.03175 0.2116666,0.021167 0.1799166,0.1799166 -0.074083,0.2963334 -0.2116666,0.5609167 -0.3915833,0.8149167 -0.1164167,0 -0.1905,0.052917 -0.22225,0.1481667 0.15875,0.1058333 0.2963333,0.2434166 0.41275,0.4021666 0.1164167,0.084667 0.2434167,0.15875 0.3704167,0.2116667 0.2328333,0.084667 0.4550833,0.1799167 0.6985,0.28575 0.2328333,0.1058333 0.4974166,0.1058333 0.79375,-0.010583 0.2751696,-0.201084 0.4127529,-0.455084 0.4021696,-0.740834 -0.010583,-0.2751666 -0.010583,-0.5609166 0.021167,-0.8360833 0.1164164,-0.2116667 0.1904997,-0.41275 0.2222497,-0.5926667 0.042333,-0.15875 0.1375833,-0.2434166 0.2963333,-0.2328333 0.1375826,0.010583 0.2645826,-0.042333 0.3809996,-0.1375833 0.201083,-0.1164167 0.34925,-0.2434167 0.423333,-0.4233333 -0.07408,-0.15875 -0.116416,-0.3386667 -0.127,-0.5291667 -0.105833,-0.0635 -0.179916,-0.1481667 -0.22225,-0.2751667 -0.09525,-0.09525 -0.22225,-0.1693333 -0.34925,-0.2328333 C 9.9722298,4.0703441 9.9828131,3.7951775 10.09923,3.4670941 10.205063,3.1919275 10.173313,2.9908442 9.9933965,2.8638442 10.109813,2.4934275 10.19448,2.2182608 10.247396,2.0595108 l 0.04233,-0.5291666 c -0.05292,-0.22225 -0.08467,-0.4445 -0.116417,-0.68791669 z M 8.1942301,2.8638442 c 0.2751667,0.0635 0.34925,0.28575 0.1905,0.6879166 -0.03175,0.22225 -0.084667,0.41275 -0.1375833,0.60325 -0.052917,0.1799167 -0.2751667,0.2963333 -0.6561667,0.3386667 -0.381,0.052917 -0.6773333,0.084667 -0.9101667,0.1164166 0.1375834,-0.1799166 0.3069167,-0.34925 0.47625,-0.5185833 0.1799167,-0.1693333 0.3175,-0.3386667 0.381,-0.53975 0.09525,-0.1693333 0.2328334,-0.3175 0.4021667,-0.4339166 z" />
  </g>
</svg>
